<svg width="80" height="60" viewBox="0 0 80 60" fill="none" xmlns="http://www.w3.org/2000/svg">
<path d="M62.9345 60C58.0084 60 53.9619 58.4118 50.7951 55.2353C47.6283 52.1765 46.0449 48.1176 46.0449 43.0588C46.0449 40.7059 46.3382 38.3529 46.9246 36C47.5111 33.6471 48.8012 30.1176 50.7951 25.4118L60.8233 7.64879e-07L78.2407 -7.57795e-07L70.4996 28.0588C73.4318 29.2353 75.7776 31.1176 77.5369 33.7059C79.179 36.4118 80 39.5294 80 43.0588C80 48.1176 78.4166 52.1765 75.2498 55.2353C71.9657 58.4118 67.8606 60 62.9345 60Z" fill="url(#paint0_linear_9_344)"/>
<path d="M16.8896 60C11.9634 60 7.91699 58.4118 4.7502 55.2353C1.5834 52.1765 -6.12177e-07 48.1177 -1.05443e-06 43.0588C-1.26013e-06 40.7059 0.29322 38.3529 0.879664 36C1.46611 33.6471 2.75629 30.1177 4.75019 25.4118L14.7784 4.79026e-06L32.1957 3.26758e-06L24.4547 28.0588C27.3869 29.2353 29.7327 31.1177 31.492 33.7059C33.134 36.4118 33.9551 39.5294 33.9551 43.0588C33.9551 48.1177 32.3717 52.1765 29.2049 55.2353C25.9208 58.4118 21.8157 60 16.8896 60Z" fill="url(#paint1_linear_9_344)"/>
<defs>
<linearGradient id="paint0_linear_9_344" x1="80" y1="0" x2="-4.65455" y2="7.40074e-06" gradientUnits="userSpaceOnUse">
<stop stop-color="#6DC6DA"/>
<stop offset="1" stop-color="#4063AD"/>
</linearGradient>
<linearGradient id="paint1_linear_9_344" x1="80" y1="0" x2="-4.65455" y2="7.40074e-06" gradientUnits="userSpaceOnUse">
<stop stop-color="#6DC6DA"/>
<stop offset="1" stop-color="#4063AD"/>
</linearGradient>
</defs>
</svg>
