<svg width="32" height="32" viewBox="0 0 32 32" fill="none" xmlns="http://www.w3.org/2000/svg">
<path d="M16 14.6665C17.7681 14.6665 19.4638 15.3689 20.714 16.6191C21.9642 17.8694 22.6666 19.5651 22.6666 21.3332V29.3332H9.33329V21.3332C9.33329 19.5651 10.0357 17.8694 11.2859 16.6191C12.5362 15.3689 14.2319 14.6665 16 14.6665ZM7.05063 18.6745C6.83844 19.3902 6.71309 20.1289 6.67729 20.8745L6.66663 21.3332V29.3332H2.66663V23.3332C2.66636 22.1833 3.09066 21.0738 3.85814 20.2175C4.62561 19.3611 5.68222 18.8183 6.82529 18.6932L7.05196 18.6745H7.05063ZM24.9493 18.6745C26.1358 18.7468 27.2501 19.2691 28.0648 20.1348C28.8794 21.0005 29.3331 22.1444 29.3333 23.3332V29.3332H25.3333V21.3332C25.3333 20.4092 25.2 19.5172 24.9493 18.6745ZM7.33329 10.6665C8.21735 10.6665 9.06519 11.0177 9.69032 11.6428C10.3154 12.2679 10.6666 13.1158 10.6666 13.9998C10.6666 14.8839 10.3154 15.7317 9.69032 16.3569C9.06519 16.982 8.21735 17.3332 7.33329 17.3332C6.44924 17.3332 5.60139 16.982 4.97627 16.3569C4.35115 15.7317 3.99996 14.8839 3.99996 13.9998C3.99996 13.1158 4.35115 12.2679 4.97627 11.6428C5.60139 11.0177 6.44924 10.6665 7.33329 10.6665ZM24.6666 10.6665C25.5507 10.6665 26.3985 11.0177 27.0236 11.6428C27.6488 12.2679 28 13.1158 28 13.9998C28 14.8839 27.6488 15.7317 27.0236 16.3569C26.3985 16.982 25.5507 17.3332 24.6666 17.3332C23.7826 17.3332 22.9347 16.982 22.3096 16.3569C21.6845 15.7317 21.3333 14.8839 21.3333 13.9998C21.3333 13.1158 21.6845 12.2679 22.3096 11.6428C22.9347 11.0177 23.7826 10.6665 24.6666 10.6665ZM16 2.6665C17.4144 2.6665 18.771 3.22841 19.7712 4.2286C20.7714 5.2288 21.3333 6.58535 21.3333 7.99984C21.3333 9.41433 20.7714 10.7709 19.7712 11.7711C18.771 12.7713 17.4144 13.3332 16 13.3332C14.5855 13.3332 13.2289 12.7713 12.2287 11.7711C11.2285 10.7709 10.6666 9.41433 10.6666 7.99984C10.6666 6.58535 11.2285 5.2288 12.2287 4.2286C13.2289 3.22841 14.5855 2.6665 16 2.6665Z" fill="#6DC6DA"/>
</svg>
